<svg width="48" height="48" viewBox="0 0 48 48" fill="none" xmlns="http://www.w3.org/2000/svg">
<path d="M24 25.7061L42.55 10.8811C41.8377 10.3162 40.9347 10.0042 40 10H8C7.06535 10.0042 6.16229 10.3162 5.45 10.8811L24 25.7061Z" fill="#1F2A37"/>
<path d="M26.5 28.6237C25.7721 29.1434 24.8824 29.4272 23.966 29.432C23.112 29.4336 22.2807 29.1754 21.598 28.6965L4 14.6368V34.2667C4 35.2568 4.42143 36.2064 5.17157 36.9065C5.92172 37.6067 6.93913 38 8 38H40C41.0609 38 42.0783 37.6067 42.8284 36.9065C43.5786 36.2064 44 35.2568 44 34.2667V14.6368L26.5 28.6237Z" fill="#1F2A37"/>
</svg>
