<svg width="48" height="48" viewBox="0 0 48 48" fill="none" xmlns="http://www.w3.org/2000/svg">
<path d="M44.083 29.79C43.9 28.961 43.148 27.994 41.631 27.994C41.321 27.994 40.982 28.033 40.596 28.113C39.888 28.259 39.285 28.33 38.754 28.354C42.887 21.314 45.57 11.535 42.913 8.14C39.412 3.667 34.699 2.999 32.202 2.999L31.967 3C31.038 3.015 30.074 3.129 29.104 3.339L25.521 4.113C25.033 4.052 24.536 4.009 24.018 4H23.988H23.972L23.82 3.999C22.227 3.999 20.774 4.337 19.479 4.972L18.228 4.479C16.508 3.801 13.92 2.994 11.36 2.994C11.216 2.994 11.073 2.997 10.929 3.002C8.407 3.093 6.241 4.05 4.664 5.769C2.696 7.915 1.8 11.054 2.003 15.1C2.013 15.309 4.461 36 11.4 36H11.425L11.489 35.999C12.39 35.977 13.249 35.615 14.052 34.922C14.665 35.382 15.458 35.654 16.197 35.762C16.685 35.877 17.563 36.04 18.615 36.04C19.899 36.04 21.057 35.777 22.055 35.302C22.054 36.182 22.049 37.296 22.039 38.72L22.038 38.795L22.043 38.87C22.14 40.289 22.385 41.568 22.754 42.571C23.805 45.43 25.62 47.005 27.865 47.005C27.958 47.005 28.053 47.002 28.149 46.996C29.995 46.882 31.866 45.845 33.153 44.224C34.546 42.469 34.868 40.617 34.992 39.198L35 39.111V39.023V34.944L35.103 34.954L35.539 34.992L35.581 34.996L35.623 34.998C35.747 35.004 35.875 35.006 36.004 35.006C37.511 35.006 39.366 34.615 40.62 34.032C41.819 33.476 44.559 31.948 44.083 29.79Z" fill="white"/>
<path d="M33 34C33 33.795 33.012 33.624 33.018 33.435C33.008 33.184 33 33 33 33C33 33 33.012 32.991 33.032 32.978C33.181 30.305 33.918 29.275 34.707 28.688C34.597 28.535 34.47 28.37 34.351 28.213C34.018 27.776 33.603 27.234 33.159 26.539L33.077 26.381C33.01 26.217 32.848 25.934 32.642 25.562C31.459 23.422 28.997 18.97 30.682 16.158C31.42 14.926 32.804 14.216 34.803 14.041C33.986 11.718 30.925 6.115 23.985 6C23.983 6 23.981 6 23.979 6C17.938 5.902 15.953 11.392 15.307 14.672C16.197 14.295 17.213 14.066 18.143 14.066C18.157 14.066 18.172 14.066 18.186 14.066C20.476 14.083 22.051 15.305 22.509 17.42C22.844 18.972 23.005 20.33 23.001 21.573C22.991 24.292 22.443 25.722 21.959 26.984L21.805 27.392C21.681 27.726 21.55 28.037 21.426 28.329C21.3 28.627 21.189 28.892 21.108 29.131C21.592 29.241 21.972 29.396 22.233 29.511L22.384 29.577C22.431 29.597 22.478 29.62 22.521 29.646C23.369 30.162 23.897 30.955 24.01 31.879C24.071 32.377 24.061 35.772 24.04 38.734C24.127 40.019 24.345 41.098 24.633 41.88C25.042 42.994 26.064 45.121 28.027 44.999C29.397 44.914 30.714 44.08 31.588 42.98C32.526 41.799 32.872 40.493 33.002 39.022V34H33Z" fill="#0277BD"/>
<path d="M15.114 28.917C13.501 27.234 12.715 24.97 13.01 22.861C13.295 20.826 13.134 18.834 13.047 17.763C13.018 17.406 12.999 17.14 13 16.993C13 16.985 13.002 16.978 13.003 16.97C13.003 16.966 13.001 16.963 13.001 16.959C13.122 13.938 14.287 9.172 17.494 6.339C15.932 5.724 13.388 4.913 11 5C7.258 5.136 3.636 7.724 4 15C4.137 17.73 7.222 34.103 11.44 34C12.043 33.985 12.669 33.598 13.312 32.824C14.329 31.601 15.317 30.492 16.02 29.72C15.705 29.481 15.401 29.217 15.114 28.917ZM37.023 14.731C37.038 14.885 37.025 15.017 37.001 15.139C37.032 16.059 36.933 16.952 36.832 17.816C36.758 18.452 36.682 19.109 36.661 19.768C36.64 20.413 36.731 21.05 36.827 21.724C37.052 23.302 37.286 25.083 36.062 27.161C36.287 27.457 36.485 27.732 36.643 27.998C41.253 20.523 43.111 11.637 41.338 9.372C38.655 5.944 34.941 4.952 31.999 5C31.078 5.015 30.241 5.139 29.526 5.294C34.602 7.754 36.863 13.026 37.023 14.731ZM41 30.071C38.335 30.621 37.053 30.328 36.431 29.945C36.331 30.017 36.231 30.078 36.138 30.135C35.766 30.36 35.177 30.718 35.033 32.917C35.116 32.933 35.189 32.942 35.279 32.961L35.714 33C37.034 33.06 38.763 32.69 39.777 32.219C41.962 31.205 43.153 29.627 41 30.071ZM22.023 32.119C21.986 31.821 21.825 31.58 21.531 31.387L21.423 31.34C21.062 31.181 20.653 31 20 31H19.996C19.869 31.01 19.743 31.019 19.616 31.019C19.564 31.019 19.513 31.012 19.461 31.01C18.987 31.375 18.313 31.657 16.645 32C13.665 32.759 15.424 33.655 16.567 33.794C17.673 34.071 20.302 34.408 22.048 32.985C22.043 32.537 22.035 32.229 22.023 32.119Z" fill="#0277BD"/>
<path d="M20.681 18.501C20.389 18.803 19.928 19.067 19.419 18.985C18.591 18.851 17.956 17.852 18.002 17.477C18.046 17.103 18.753 16.908 19.58 17.042C19.867 17.089 20.128 17.17 20.348 17.27C20.028 16.582 19.449 16.185 18.566 16.088C17.001 15.914 15.34 16.732 15.006 17.185C15.013 17.295 15.026 17.436 15.039 17.602C15.132 18.749 15.304 20.886 14.989 23.139C14.781 24.624 15.382 26.308 16.556 27.534C17.313 28.324 18.197 28.824 19.069 28.972C19.18 28.494 19.378 28.028 19.582 27.547C19.695 27.282 19.815 27 19.928 26.695L20.09 26.268C20.533 25.113 20.99 23.918 20.999 21.565C21.003 20.66 20.892 19.627 20.681 18.501ZM34.847 22.007C34.743 21.278 34.636 20.523 34.662 19.704C34.685 18.962 34.767 18.262 34.846 17.585C34.908 17.052 34.956 16.54 34.984 16.035C33.695 16.142 32.839 16.514 32.433 17.143C32.601 17.086 32.791 17.041 33.001 17.014C33.893 16.898 34.544 17.155 34.619 17.651C34.674 18.014 34.366 18.356 34.231 18.487C33.954 18.756 33.605 18.929 33.25 18.975C33.186 18.983 33.121 18.987 33.058 18.987C32.705 18.987 32.368 18.866 32.109 18.687C32.221 20.66 33.676 23.299 34.392 24.594C34.545 24.871 34.663 25.092 34.761 25.282C35.154 24.163 35.009 23.143 34.847 22.007Z" fill="#0277BD"/>
</svg>
