<svg width="48" height="48" viewBox="0 0 48 48" fill="none" xmlns="http://www.w3.org/2000/svg">
<path d="M24 34C11.1 34 1 29.6 1 24C1 18.4 11.1 14 24 14C36.9 14 47 18.4 47 24C47 29.6 36.9 34 24 34ZM24 16C11.4 16 3 20.1 3 24C3 27.9 11.4 32 24 32C36.6 32 45 27.9 45 24C45 20.1 36.6 16 24 16Z" fill="#80DEEA"/>
<path d="M15.1 44.6C14.1 44.6 13.3 44.4 12.5 43.9C7.6 41.1 8.9 30.2 15.3 19C18.3 13.8 22 9.4 25.6 6.6C29.5 3.6 33 2.7 35.4 4.1C37.9 5.5 38.8 9 38.2 13.9C37.6 18.5 35.6 23.9 32.6 29.1C29.6 34.3 25.9 38.7 22.3 41.5C19.7 43.5 17.2 44.6 15.1 44.6ZM32.9 5.4C31.3 5.4 29.2 6.3 26.9 8.1C23.5 10.8 20 15 17.1 20C10.8 30.9 10.2 40.3 13.5 42.2C15.2 43.2 18 42.3 21.1 39.9C24.5 37.2 28 33 30.9 28C33.8 23 35.7 17.9 36.3 13.6C36.8 9.6 36.2 6.8 34.5 5.8C34 5.6 33.5 5.4 32.9 5.4Z" fill="#80DEEA"/>
<path d="M33 44.6C28 44.6 20.8 38.5 15.4 29C8.9 17.8 7.6 6.9 12.5 4.1C17.4 1.3 26.2 7.8 32.7 19C35.7 24.2 37.7 29.6 38.3 34.2C39 39.1 38 42.5 35.5 44C34.7 44.4 33.9 44.6 33 44.6ZM13.5 5.8C10.2 7.7 10.8 17.1 17.1 28C23.4 38.9 31.2 44.1 34.5 42.2C36.2 41.2 36.8 38.4 36.3 34.4C35.7 30.1 33.8 25 30.9 20C24.6 9.1 16.8 3.9 13.5 5.8Z" fill="#80DEEA"/>
<path d="M24 28C26.2091 28 28 26.2091 28 24C28 21.7909 26.2091 20 24 20C21.7909 20 20 21.7909 20 24C20 26.2091 21.7909 28 24 28Z" fill="#80DEEA"/>
</svg>
