<svg width="48" height="48" viewBox="0 0 48 48" fill="none" xmlns="http://www.w3.org/2000/svg">
<path d="M17.204 19.122L12.297 21.837C12.113 21.938 12 22.126 12 22.329V27.762C12 27.965 12.113 28.152 12.297 28.254L17.205 30.971C17.388 31.072 17.615 31.072 17.798 30.971L22.705 28.254C22.887 28.152 23 27.965 23 27.762V22.329C23 22.126 22.887 21.939 22.703 21.837L17.797 19.122C17.705 19.071 17.602 19.046 17.5 19.046C17.397 19.046 17.295 19.071 17.203 19.122M42.451 24.013L41.633 24.465C41.602 24.482 41.584 24.513 41.584 24.547V25.453C41.584 25.487 41.603 25.518 41.633 25.535L42.451 25.988C42.482 26.005 42.519 26.005 42.55 25.988L43.368 25.535C43.398 25.518 43.417 25.487 43.417 25.453V24.547C43.417 24.513 43.398 24.482 43.367 24.465L42.549 24.013C42.534 24.004 42.517 24 42.5 24C42.483 24 42.466 24.004 42.451 24.013Z" fill="#388E3C"/>
<path d="M35.751 13.364L33.362 12.031C33.287 11.989 33.195 11.99 33.121 12.034C33.047 12.078 33.001 12.157 33.001 12.243L33 20.295L30.797 19.076C30.705 19.025 30.602 19 30.5 19C30.398 19 30.295 19.025 30.203 19.076H30.204L25.297 21.791C25.113 21.892 25 22.08 25 22.282V27.715C25 27.918 25.113 28.105 25.297 28.207L30.205 30.924C30.388 31.025 30.615 31.025 30.798 30.924L35.705 28.207C35.887 28.106 36 27.918 36 27.715V13.788C36 13.612 35.904 13.45 35.751 13.364ZM32.866 26.458L30.636 27.693C30.553 27.739 30.45 27.739 30.367 27.693L28.136 26.458C28.051 26.412 28 26.326 28 26.234V23.764C28 23.672 28.051 23.587 28.135 23.54L30.366 22.306C30.408 22.283 30.453 22.272 30.5 22.272C30.547 22.272 30.593 22.284 30.635 22.306L32.865 23.54C32.949 23.587 33 23.673 33 23.765V26.235C33 26.326 32.949 26.412 32.866 26.458Z" fill="#37474F"/>
<path d="M17.204 19.122L12 27.762C12 27.965 12.113 28.152 12.297 28.254L17.205 30.971C17.388 31.072 17.615 31.072 17.798 30.971L23 22.329C23 22.126 22.887 21.939 22.703 21.837L17.797 19.122C17.705 19.071 17.602 19.046 17.5 19.046C17.397 19.046 17.295 19.071 17.203 19.122" fill="#2E7D32"/>
<path d="M17.204 19.122L12.297 21.837C12.113 21.938 12 22.126 12 22.329L17.204 30.971C17.387 31.072 17.614 31.072 17.797 30.971L22.704 28.254C22.887 28.152 23 27.965 23 27.762L17.797 19.122C17.705 19.071 17.602 19.046 17.5 19.046C17.397 19.046 17.295 19.071 17.203 19.122" fill="#4CAF50"/>
<path d="M47.703 21.791L42.797 19.076C42.705 19.025 42.602 19 42.5 19C42.398 19 42.295 19.025 42.203 19.076L37.297 21.791C37.114 21.892 37 22.084 37 22.294V27.705C37 27.914 37.114 28.107 37.297 28.208L42.205 30.925C42.389 31.027 42.614 31.027 42.798 30.925L45.061 29.672C45.268 29.557 45.267 29.26 45.059 29.146L40.135 26.459C40.052 26.412 40 26.325 40 26.231V23.765C40 23.673 40.05 23.588 40.13 23.544L42.365 22.308H42.364C42.406 22.285 42.452 22.274 42.499 22.274C42.546 22.274 42.592 22.286 42.634 22.308L44.869 23.545C44.949 23.589 44.999 23.674 44.999 23.766V25.778C44.999 25.864 45.045 25.944 45.12 25.987C45.195 26.029 45.287 26.029 45.362 25.986L47.76 24.593C47.908 24.507 48 24.348 48 24.176V22.296C48 22.085 47.886 21.892 47.703 21.791ZM10.703 21.791L5.797 19.076C5.705 19.025 5.602 19 5.5 19C5.398 19 5.295 19.025 5.203 19.076L0.297 21.791C0.114 21.892 0 22.084 0 22.294V29.759C0 29.845 0.046 29.925 0.121 29.968C0.196 30.01 0.288 30.01 0.363 29.967L2.761 28.574C2.909 28.488 3 28.329 3 28.157V23.764C3 23.672 3.05 23.587 3.13 23.543L5.365 22.307C5.407 22.284 5.453 22.273 5.5 22.273C5.547 22.273 5.593 22.285 5.635 22.307L7.87 23.544C7.95 23.588 8 23.673 8 23.765V28.158C8 28.33 8.091 28.489 8.24 28.575L10.638 29.968C10.713 30.011 10.805 30.011 10.88 29.969C10.954 29.925 11 29.845 11 29.759V22.295C11 22.085 10.886 21.892 10.703 21.791Z" fill="#37474F"/>
</svg>
