<svg width="48" height="48" viewBox="0 0 48 48" fill="none" xmlns="http://www.w3.org/2000/svg">
<path d="M23.9996 4.00001C21.0827 3.99716 18.2205 4.79258 15.7233 6.30009C13.2261 7.8076 11.189 9.96973 9.83279 12.5522C8.47655 15.1347 7.85285 18.0391 8.02926 20.9507C8.20568 23.8623 9.17549 26.6702 10.8336 29.07C10.9 29.2004 10.9805 29.3232 11.0736 29.436L11.3136 29.728C11.5376 30.018 11.7676 30.298 11.9656 30.528L22.4556 43.276C22.6437 43.503 22.8797 43.6857 23.1466 43.8108C23.4135 43.936 23.7048 44.0006 23.9996 44V44C24.2952 44.0002 24.5872 43.9348 24.8546 43.8085C25.1219 43.6823 25.3579 43.4984 25.5456 43.27L35.7296 30.86C36.1421 30.4165 36.5281 29.949 36.8856 29.46L37.1396 29.15C37.2364 29.0325 37.3183 28.9035 37.3836 28.766C38.9641 26.3527 39.8628 23.557 39.9844 20.6747C40.1061 17.7925 39.4462 14.931 38.0747 12.3931C36.7031 9.85516 34.671 7.73527 32.1932 6.25778C29.7155 4.7803 26.8844 4.00018 23.9996 4.00001V4.00001ZM23.9996 14C25.1863 14 26.3463 14.3519 27.333 15.0112C28.3197 15.6705 29.0888 16.6076 29.5429 17.7039C29.997 18.8003 30.1158 20.0067 29.8843 21.1705C29.6528 22.3344 29.0814 23.4035 28.2423 24.2426C27.4031 25.0818 26.334 25.6532 25.1702 25.8847C24.0063 26.1162 22.7999 25.9974 21.7035 25.5433C20.6072 25.0892 19.6701 24.3201 19.0108 23.3334C18.3515 22.3467 17.9996 21.1867 17.9996 20C17.9996 18.4087 18.6318 16.8826 19.757 15.7574C20.8822 14.6321 22.4083 14 23.9996 14V14Z" fill="#1F2A37"/>
</svg>
