<svg width="20" height="20" viewBox="0 0 20 20" fill="none" xmlns="http://www.w3.org/2000/svg">
<path d="M15.7777 11.3333V15.6293C15.7778 15.7656 15.7511 15.9005 15.699 16.0264C15.6469 16.1523 15.5705 16.2667 15.4741 16.3631C15.3778 16.4594 15.2634 16.5358 15.1375 16.5879C15.0116 16.64 14.8766 16.6668 14.7404 16.6666H4.37059C4.23433 16.6668 4.09939 16.64 3.97348 16.5879C3.84757 16.5358 3.73317 16.4594 3.63682 16.3631C3.54047 16.2667 3.46407 16.1523 3.41198 16.0264C3.35989 15.9005 3.33314 15.7656 3.33325 15.6293V5.25954C3.33314 5.12328 3.35989 4.98833 3.41198 4.86243C3.46407 4.73652 3.54047 4.62212 3.63682 4.52577C3.73317 4.42942 3.84757 4.35302 3.97348 4.30093C4.09939 4.24884 4.23433 4.22208 4.37059 4.2222H8.47547M11.5395 3.33331H16.6666V8.46042M9.65414 10.3458L16.5679 3.43198" stroke="white" stroke-width="2" stroke-linecap="round" stroke-linejoin="round"/>
</svg>
